<?xml version="1.0" encoding="iso-8859-1"?>
<!-- Uploaded to: SVG Repo, www.svgrepo.com, Generator: SVG Repo Mixer Tools -->
<svg fill="#fff" height="25" width="25" stroke-width="2" version="1.1" id="Capa_1" xmlns="http://www.w3.org/2000/svg" xmlns:xlink="http://www.w3.org/1999/xlink" 
	 viewBox="0 0 480 480" xml:space="preserve">
<path id="XMLID_1731_" d="M472.363,159.597c-5.241-5.759-12.555-9.373-20.457-10.201v-30.025C451.907,53.55,397.849,0,331.403,0
	h-20.084c-66.446,0-120.504,53.55-120.504,119.371v30.025c-7.901,0.828-15.216,4.442-20.457,10.201
	c-5.682,6.242-8.338,14.199-7.478,22.402l7.505,71.626c-0.121,0-0.24-0.001-0.36-0.001c-9.434,0-18.903,2.229-27.541,6.631
	l-8.343,4.253L63.562,114.133c-3.859-8.222-10.753-14.371-19.413-17.31c-8.659-2.94-17.91-2.275-26.05,1.874
	c-8.14,4.148-14.065,11.218-16.685,19.907c-2.619,8.688-1.578,17.818,2.932,25.709l82.476,144.31l-8.343,4.252
	c-14.944,7.616-25.988,21.015-30.3,36.761c-4.143,15.129-1.825,30.638,6.53,43.668l60.946,95.059
	c4.809,7.501,12.987,11.636,21.531,11.636c4.13-0.001,8.346-0.967,12.307-2.985l42.444-21.632
	c3.623,12.885,15.951,22.099,30.51,22.099h197.825c16.309,0,29.821-11.564,31.428-26.899l28.14-268.584
	C480.701,173.795,478.045,165.839,472.363,159.597z M210.898,119.371c0-54.851,45.048-99.475,100.42-99.475h20.084
	c55.372,0,100.42,44.624,100.42,99.475v29.843H210.898V119.371z M21.824,134.511c-1.792-3.135-2.206-6.762-1.165-10.215
	c1.041-3.452,3.395-6.261,6.629-7.909c1.906-0.971,3.965-1.462,6.04-1.462c1.445,0,2.897,0.238,4.31,0.718
	c3.441,1.169,6.18,3.611,7.713,6.878l70.916,151.097l-11.57,5.897L21.824,134.511z M195.644,431.12
	c-0.149,0.072-0.296,0.147-0.44,0.224l-54.898,27.978c-2.814,1.434-6.194,0.72-7.697-1.625l-60.946-95.059
	c-5.292-8.253-6.748-18.124-4.1-27.794c2.838-10.363,10.166-19.212,20.105-24.277l17.556-8.948c0.05-0.025,0.1-0.051,0.15-0.077
	l46.297-23.595c8.504-4.336,18.171-5.519,27.152-3.426c0.286,0.084,3.293,0.902,4.478,1.338c9.481,3.488,16.741,10.4,20.444,19.464
	l42.643,104.388c1.052,2.575-0.327,5.715-3.139,7.148L195.644,431.12z M459.864,179.946l-28.14,268.583
	c-0.532,5.08-5.562,9.059-11.451,9.059H222.448c-5.889,0-10.919-3.979-11.451-9.058l-0.284-2.715l41.724-21.264
	c12.157-6.196,17.561-20.083,12.569-32.302L222.363,287.86c-5.755-14.088-16.883-24.857-31.384-30.394l-8.122-77.52
	c-0.265-2.528,0.594-5.022,2.417-7.026c2.204-2.422,5.497-3.811,9.033-3.811h254.106c3.537,0,6.829,1.389,9.033,3.811
	C459.271,174.923,460.129,177.418,459.864,179.946z M368.662,238.977l-18.469-6.682l-12.123-15.334
	c-4.05-5.124-10.141-8.063-16.71-8.063c-6.569,0-12.66,2.939-16.71,8.063l-12.123,15.334l-18.47,6.683
	c-6.17,2.232-10.874,7.063-12.904,13.252c-2.029,6.188-1.091,12.835,2.577,18.234l10.977,16.159l0.708,19.465
	c0.236,6.503,3.42,12.427,8.735,16.251c5.314,3.826,11.986,4.996,18.303,3.208l18.907-5.348l18.907,5.349
	c1.94,0.548,3.912,0.818,5.869,0.818c4.417,0,8.751-1.376,12.434-4.027c5.315-3.825,8.498-9.748,8.735-16.251l0.708-19.465
	l10.977-16.16c3.667-5.398,4.606-12.045,2.577-18.233C379.537,246.041,374.834,241.21,368.662,238.977z M362.327,259.357
	l-12.578,18.516c-1.046,1.541-1.637,3.34-1.704,5.195l-0.811,22.303c-0.005,0.136-0.02,0.55-0.469,0.873
	c-0.448,0.323-0.851,0.21-0.983,0.173l-21.664-6.128c-0.901-0.255-1.829-0.383-2.757-0.383s-1.856,0.127-2.757,0.383l-21.664,6.127
	c-0.131,0.039-0.534,0.152-0.983-0.172c-0.45-0.323-0.464-0.737-0.469-0.873l-0.811-22.303c-0.068-1.855-0.658-3.655-1.704-5.195
	l-12.577-18.515c-0.077-0.114-0.31-0.458-0.139-0.98c0.172-0.524,0.565-0.666,0.693-0.712l21.162-7.656
	c1.76-0.637,3.306-1.75,4.461-3.212l13.891-17.57c0.085-0.108,0.343-0.434,0.898-0.434s0.813,0.326,0.898,0.433l13.891,17.571
	c1.155,1.462,2.701,2.574,4.461,3.212l21.161,7.655c0.129,0.047,0.523,0.189,0.694,0.713
	C362.637,258.9,362.404,259.244,362.327,259.357z"/>
</svg>