<svg id="dynamic-stroke" xmlns="http://www.w3.org/2000/svg" width="55" height="55" viewBox="0 0 24 24" fill="none"><path fill-rule="evenodd" clip-rule="evenodd" d="M6 2a4 4 0 0 0-4 4v12a4 4 0 0 0 4 4h12a4 4 0 0 0 4-4V6a4 4 0 0 0-4-4H6ZM4 6a2 2 0 0 1 2-2h12a2 2 0 0 1 2 2v12a2 2 0 0 1-2 2H6a2 2 0 0 1-2-2V6Zm5 5a1 1 0 1 0-2 0v6a1 1 0 1 0 2 0v-6Zm.5-3.5a1.5 1.5 0 1 1-3 0 1.5 1.5 0 0 1 3 0ZM12 10c.34 0 .64.17.82.428A3.51 3.51 0 0 1 14.5 10c2.16 0 3.5 1.926 3.5 3.571V17a1 1 0 1 1-2 0V13.57c0-.768-.66-1.571-1.5-1.571-.524 0-1.103.285-1.5.963V17a1 1 0 1 1-2 0V11a1 1 0 0 1 1-1Z" fill="#1c2951"/>
 <style>
    #dynamic-stroke path {
      fill: #1c2951;
    }
    @media (prefers-color-scheme: dark) {
      #dynamic-stroke path {
        fill: #e5e7eb;
      }
    }
  </style>
</svg>